<!DOCTYPE svg PUBLIC "-//W3C//DTD SVG 1.1//EN" "http://www.w3.org/Graphics/SVG/1.1/DTD/svg11.dtd">
<!-- Uploaded to: SVG Repo, www.svgrepo.com, Transformed by: SVG Repo Mixer Tools -->
<svg height="800px" width="800px" version="1.1" id="Layer_1" xmlns="http://www.w3.org/2000/svg" xmlns:xlink="http://www.w3.org/1999/xlink" viewBox="0 0 496.8 496.8" xml:space="preserve" fill="#000000">
<g id="SVGRepo_bgCarrier" stroke-width="0"/>
<g id="SVGRepo_tracerCarrier" stroke-linecap="round" stroke-linejoin="round"/>
<g id="SVGRepo_iconCarrier"> <path style="fill:#006D2C;" d="M288.4,73.6C288.4,86.4,278,96,266,96h-35.2c-12.8,0-22.4-10.4-22.4-22.4V22.4 c0-12,10.4-22.4,22.4-22.4H266c12,0,22.4,10.4,22.4,22.4V73.6z"/> <path style="fill:#025122;" d="M208.4,22.4c0-12,11.2-22.4,23.2-22.4h33.6c12,0,23.2,8.8,23.2,21.6v48c0,12.8-2.4,24-22.4,26.4"/> <polygon style="fill:#006D2C;" points="248.4,72 248.4,496.8 170,412.8 231.6,66.4 "/> <g> <polygon style="fill:#025122;" points="248.4,72 248.4,496.8 326.8,412.8 265.2,66.4 "/> <polygon style="fill:#025122;" points="174,392.8 248.4,468 248.4,428.8 179.6,359.2 "/> <polygon style="fill:#025122;" points="187.6,315.2 248.4,376.8 248.4,337.6 193.2,281.6 "/> <polygon style="fill:#025122;" points="201.2,237.6 248.4,285.6 248.4,246.4 206.8,204 "/> <polygon style="fill:#025122;" points="215.6,157.6 248.4,191.2 248.4,152 221.2,124.8 "/> </g> </g>
</svg>